<svg viewBox="0 0 120 120" xmlns="http://www.w3.org/2000/svg">
    <style>
        /* Tailwind text-gray-800 */
<!--        sv { color: #1F2937; }-->

        /* Tailwind fill-current behavior */
        .fill-current { fill: currentColor; }

        /* Optional: if you ever want to apply fill-current to shapes that rely on it */
    </style>

    <path d="M20 45 L20 90 C20 90 45 82 60 82 C75 82 100 90 100 90 L100 45"
          stroke="currentColor" stroke-width="2" opacity="0.3"/>

    <path d="M60 35 C35 35 15 42 15 42 V87 C15 87 35 80 60 80 C85 80 105 87 105 87 V42 C105 42 85 35 60 35 Z"
          class="fill-current" fill-opacity="0.03"
          stroke="currentColor" stroke-width="4" stroke-linejoin="round"/>

    <path d="M15 82 Q35 75 60 75 Q85 75 105 82"
          stroke="currentColor" stroke-width="1" opacity="0.4"/>
    <path d="M15 77 Q35 70 60 70 Q85 70 105 77"
          stroke="currentColor" stroke-width="1" opacity="0.2"/>

    <path d="M72 36 V48 L78 42 L84 48 V36.5"
          class="fill-current"/>

    <path d="M35 68 C35 68 35.5 73 43 73 C48 73 51 70 51 66 C51 58 35 60 35 50 C35 45 39 42 44 42 C49 42 51 45 51 45"
          stroke="currentColor" stroke-width="6" stroke-linecap="butt" fill="none"/>
    <path d="M32 69 H39 M47 45 H54"
          stroke="currentColor" stroke-width="5"/>

    <g transform="translate(78, 60) rotate(-5)">
        <path d="M-15 0 L0 -8 L15 0 L0 8 Z"
              fill="white" stroke="currentColor" stroke-width="3"/>
        <path d="M-8 4 V8 C-8 12 8 12 8 8 V4"
              class="fill-current"/>
        <path d="M15 0 C16 5 18 8 20 9"
              stroke="currentColor" stroke-width="1.5" stroke-linecap="round"/>
        <circle cx="21" cy="10" r="1.5" class="fill-current"/>
    </g>

    <path d="M60 35 V80"
          stroke="currentColor" stroke-width="2" opacity="0.6"/>
</svg>
